<svg id="logo" data-name="Layer 1" xmlns="http://www.w3.org/2000/svg" viewBox="0 0 1031.82 258.42">
  <defs>
    <style>
    </style>
  </defs>
  <path class="kastberg-logo-fill" d="M1031.82,143.11c-15.36,7.55-30.7,15.15-46.1,22.63a53.72,53.72,0,0,1-17.65,5.1c-8.48.94-16-3.9-17.63-11.31a8.39,8.39,0,0,1,0-4.42,5.46,5.46,0,0,1,5.47-4.27c3-.08,4.42,1.65,5.09,4.45,1.28,5.4,3.18,7.32,7.87,7.23a25.51,25.51,0,0,0,19.63-9.4c2.8-3.3,2.21-5.54-1.63-7.54-4-2.09-8.5-2.84-12.81-4.05-4.49-1.25-8-3.31-8.38-8.54-.15-2.28-1.47-1.72-2.76-1.16-4,1.71-8.17,3-11.84,5.26-16.21,9.85-32.43,19.67-46.47,32.66a100.61,100.61,0,0,0-27.49,41.55,321.71,321.71,0,0,1-13.18,32.31c-1.77,3.75-3.5,7.59-6.66,10.44-2.42,2.18-5.07,3.86-8.57,2.4s-4.1-4.41-4-7.79c.12-4.77,1.86-9.09,3.65-13.38a145.28,145.28,0,0,1,22.12-36.62,75.38,75.38,0,0,0,14.18-26.53c2.28-7.54,2.55-7.45-5.46-6.49A32.82,32.82,0,0,1,863,163.49c-8-3.16-12.65-9.11-13.11-17.74-.19-3.52-1.22-2.93-3.38-1.66-11.9,7-24,13.71-36.91,18.7a45.23,45.23,0,0,1-12.49,3.31c-5.1.43-7.37-1.36-8.49-6.33-1.55-6.9.26-13.54,1.59-20.21.35-1.79.93-3.54,1.34-5.32.49-2.17.05-3-2.53-2.38-6,1.4-12,2.61-18.26,2.34-2.87-.12-5.81-.41-8.1-2.08s-3.61-1.32-5.5.38c-19.23,17.35-43,25.5-67.2,32.59a36.33,36.33,0,0,1-22.13-.76,25.54,25.54,0,0,1-16.92-17c-1.86-5.56-1.85-5.57-7.61-4.06-9.16,2.4-18.31,4.84-27.48,7.2a22,22,0,0,1-15.58-1.5c-2.11-1.05-3.27-.57-4.63,1.08a58,58,0,0,1-12.32,11.6c-3.9,2.62-8,4.73-12.92,4.65-7.67-.12-12.06-4.1-12.61-11.79a32.21,32.21,0,0,1,2.58-14.12c2.79-7.11,5.72-14.17,8.59-21.25l.2-.07c-.15.65.4-.12-.24.07-13.1,8.77-26.29,17.41-40.47,24.36-15.19,7.45-30.32,15.08-46.54,20.17-4.76,1.5-9.58,2.73-14.64,2.59-7-.19-9.91-3.59-9-10.59a77.65,77.65,0,0,1,6.35-21.39c.58-1.33,1.59-2.59,1.31-4.21l.48-.32c-.1,0-.24,0-.28,0a1.34,1.34,0,0,0-.12.37c-2.68.56-4.73,2.37-7,3.65-19.76,11-40.14,20.84-60.42,30.83a60.26,60.26,0,0,1-19.93,6.16c-5.63.62-10.57-.81-14.54-5a11.71,11.71,0,0,1-3.31-10.54c.5-2.83,2.48-4.24,5.26-4.45a4.52,4.52,0,0,1,5,3.3c3,8.18,5.61,9.76,13.94,7.66a26.23,26.23,0,0,0,13.49-8.14c3.22-3.66,2.76-6-1.55-8.21-4.05-2-8.52-2.8-12.83-4s-7.66-3.34-8.1-8.24c-.25-2.72-1.7-1.74-3.08-1.17-6.77,2.78-13.42,5.81-19.93,9.16-13.9,7.16-27.86,14.21-42.19,20.47-6,2.61-12,4.88-18.72,4.61-7.31-.28-10.7-3.25-11.12-10.43-.19-3.11-1.39-2.22-3-1.3-4.31,2.51-8.57,5.13-12.95,7.5s-8.65,4.31-13.67,4.23c-10.14-.16-15.13-7.86-10.85-17,4.08-8.75,10.48-15.72,17.61-22.08l.13-.18-.18.21c-6.12,1.72-11.54,5-17.23,7.72-26.47,12.49-51.58,27.58-77.7,40.74-10.71,5.39-21.78,10-33.56,12.42-14.38,3-28.44.75-42.29-3.48-15.42-4.7-30.46-10.47-45.66-15.79-2.76-1-5.42-2.59-8.56-2-7.27,1.28-7.73,1.94-9.08,9.41-.95,5.3-.7,10.59-.57,15.9.07,2.82.26,5.66-.9,8.35-1.06,2.46-2.74,4.43-5.57,4.18s-3.53-2.91-3.77-5.19c-.83-7.8-.87-15.6,1.13-23.27.17-.65.36-1.28.56-1.92.89-2.81,1.05-4.66-3-5.3C6.2,168,2.45,164.15,0,159.1v-7c5.39-5.25,11.56-4.15,17.65-1.85,3.1,1.17,4.25.34,5.53-2.54C40.41,109.06,64.71,75,91.8,42.77c7.72-9.18,15.66-18.2,25-25.77,7.54-6.1,15.38-11.7,25.31-13.33,3.06-.51,6.05-.46,8.73,1.12,2.49,1.47,3.91,3.76,2.77,6.74S150.2,16,147.31,15c-5.57-2-10.13.17-14.64,2.79-12.67,7.36-23.19,17.29-33,28-25.45,27.59-46.88,57.93-63,91.88-2,4.2-3.71,8.54-5.38,12.89-.55,1.42-2.24,3-.74,4.55,1.67,1.72,3.66.71,5.58,0A204.44,204.44,0,0,0,70.86,139C96.6,124.13,120.78,107,144.42,89.11a1108.63,1108.63,0,0,0,88.32-74.95,92.2,92.2,0,0,0,6.4-7,32,32,0,0,1,5.66-5.61c3.27-2.25,6.47-2,8.5.46,2.19,2.71,1.83,5.3-1.32,8.29-13.15,12.52-26.69,24.62-40.78,36.07-43.45,35.3-87.82,69.35-135.54,98.81C67,150.53,58.44,156,49.25,160.32c-.74.35-1.84.74-2,1.32-.25.92.88,1.14,1.63,1.43,19.54,7.73,39.32,14.64,60.56,15.83,17.79,1,34.16-4.58,50.14-11.47,20.81-9,40.44-20.3,60.64-30.5,19.77-10,39.92-19.08,61.57-24.35a39.09,39.09,0,0,1,11.84-1.5c2.73.18,4.93,1.15,5.54,4.07.68,3.31-1.48,4.92-4.11,6-3.78,1.51-7.88,1.18-11.83,1.69a28,28,0,0,0-12.46,4.73A68.21,68.21,0,0,0,250.89,149c-1,1.7-2.84,3.73-.94,5.88,1.68,1.92,4.07,1.33,6.11.76,11.3-3.11,21-9.13,29.7-16.83a18.76,18.76,0,0,0,1.43-1.39c2.21-2.39,4.63-4.09,7.78-1.72,2.65,2,2.65,5.51.07,8.93-1.39,1.86-3.17,3.45-4.44,5.38-2.42,3.7-1.71,5,2.63,5.24,4.7.23,9.25-.77,13.78-1.91,16.65-4.19,31.49-12.46,46.55-20.29a221.29,221.29,0,0,1,29.56-13.28c2.67-.93,5.37-1.86,8.25-1.73,2.68.12,4.95,1.08,5.71,3.93.82,3.07-1.12,4.65-3.57,5.74-1.81.81-3.72,1.43-5.56,2.19-1.49.61-3.67.82-3.59,2.86.07,1.88,2.18,2.45,3.66,3,3.14,1.09,6.4,1.81,9.6,2.71,7.09,2,9.52,4.74,10.15,12.1.22,2.47,1.25,1.28,2.17.81,5.48-2.79,10.95-5.62,16.43-8.42,12.89-6.59,25.73-13.29,38.09-20.86,3.12-1.91,6.17-3.94,9.17-6,2.09-1.47,4.28-3.94,3.58-6-.61-1.8-3.82-.53-5.86-.24-3,.42-5.94.81-8.88-.3-1.94-.74-3-2-2.84-4.14s1.46-3.14,3.54-3.51c5-.88,10-.56,15-.44,4.1.1,6.58-1.37,8.79-4.91,8.57-13.7,17.56-27.12,29.38-38.36,3.76-3.57,7.65-6.94,12.5-9,2.6-1.1,5.17-1.51,7.4.76s1.95,4.71,1,7.42c-1.62,4.49-4.49,8.12-7.52,11.68Q518.83,81.7,508.05,94.49c-.52.62-1.63,1.26-1.2,2,.58,1,1.75.32,2.66.12,13.33-3,26.26-7.29,39.3-11.26,1-.29,1.88-.7,2.84-1,3.22-.86,5.7.16,6.85,3.3s-.3,5.64-3.26,6.85A115.67,115.67,0,0,1,539,99.34c-12.79,3.14-25.8,5-38.82,6.77a12.22,12.22,0,0,0-7.53,3.44,23.41,23.41,0,0,1-3.77,3.27c-12.38,8.08-16.27,20.91-19.14,34.25-1.06,4.91.54,6.39,5.66,5.63C486,151.12,496,147.66,506,144a243.57,243.57,0,0,0,66.45-37,25.1,25.1,0,0,0,6.44-7.46c10.74-18.8,21.88-37.34,35.5-54.26a90.61,90.61,0,0,1,8.29-9.32,27.68,27.68,0,0,1,7.34-5.12c5.09-2.36,9.45-2.16,12.06.83,3.24,3.71,2.24,7.76.36,11.67-2.18,4.54-5.36,8.43-8.61,12.22-15.27,17.86-31.09,35.19-49.09,50.4a9.35,9.35,0,0,0-2.95,3.31c-5,11.4-10.72,22.55-13.22,34.9-.71,3.53-2.21,7.87,1,10.32s7,.07,10.31-1.5A31.11,31.11,0,0,0,589,146c2.53-2.69,4.14-5.24,3.08-9.66-1.62-6.76.61-13.21,5.29-18.51,2.17-2.45,4.87-4.3,8.36-3,3.78,1.43,4.37,4.86,4.13,8.28a32.41,32.41,0,0,1-5.3,14.9c-2.27,3.65-1.82,4.7,2.34,5.66a15.86,15.86,0,0,0,7.44-.09c11.46-2.85,22.88-5.83,34.35-8.63,2.44-.6,3.49-2.33,4.62-4.18,6.79-11.13,16.49-17.57,29.66-18.53a22.15,22.15,0,0,1,7.91.62c7.22,2.1,8.89,8,3.34,13-7.85,7.06-17.32,11.06-27.55,13.33-.65.14-1.33.16-2,.27-6.28,1.08-6.82,2.38-3,7.54,3.48,4.67,8.39,6.83,13.94,8,9.45,2.05,18.65.43,27.57-2.33,18-5.54,34.59-13.8,49.06-26,2.41-2,4.37-4,4.82-7.64.68-5.68,6-9.91,11.36-10.24,2.63-.16,5,.26,6.55,2.7a7.25,7.25,0,0,1,.07,7.58c-.37.74-1,1.35-1.35,2.09-.81,1.6-3.81,2.47-3,4.07.89,1.81,3.63.83,5.53.78,6.51-.17,12.25-2.91,17.82-5.93,3.14-1.7,6.63-4,9.65-1.29,3.33,3,.51,6.4-1.09,9.46-3.14,6.06-6.42,12.09-6.86,19.1s1.63,8.57,8.12,6.64c8.8-2.62,17-6.68,25.26-10.66,12.14-5.85,24-12.26,36.39-17.6,10.81-4.64,22-6.22,33.65-5.78a9.27,9.27,0,0,1,4.75,1.32c2.16,1.36,3.32,3.3,2.84,5.9s-2.67,3.31-4.92,3.28c-4.49-.07-9-.18-13.47-.61a29.73,29.73,0,0,0-23.8,8.12c-5.9,5.41-4.62,12.34,2.84,15.45a22.3,22.3,0,0,0,20.19-1.19c2.48-1.37,4.87-2.89,7.36-4.23,1.84-1,3.78-1.35,5.63.07s1.72,3.54,1.3,5.48a31.06,31.06,0,0,1-1.73,4.65c-1.15,2.93-3,5.58-3.46,8.79l-.37.62.57-.42c3.61-3.18,7.1-6.49,10.84-9.52,18.84-15.27,39-28.46,61.82-37a37.07,37.07,0,0,1,10.13-2.57c3.2-.24,6.24.37,7.12,4s-1.81,5-4.55,6.13c-2,.82-4.07,1.46-6.08,2.25-.92.37-1.9.87-2.05,2-.18,1.42.93,2,2,2.56a47.73,47.73,0,0,0,10.46,3.26c3.65.85,7,2.39,9.26,5.46a9.5,9.5,0,0,1,1.65,3.58c1,4.74,1,4.78,5.24,2.54,7.23-3.77,14.5-7.47,21.62-11.43,2.61-1.44,4.93-1.73,7.47-.24Zm-535.9-47,1.09-.94c7.55-7.23,14.62-14.85,19.84-24l.22-.28-.14.36c-5.86,5-10.52,11.19-15.38,17.13-1.72,2.1-4,3.91-4.45,6.87l-1.22.88-.21.07C495.82,95.55,495.29,96.32,495.92,96.11Zm98-8.08a.93.93,0,0,0,1-.92,242,242,0,0,0,28.07-30.33,57.23,57.23,0,0,0,6.94-10.93c.27-.56.66-1.52.44-1.75-.84-.87-1.47.18-2,.62a154.45,154.45,0,0,0-23.19,26.07C601.42,76,597.2,81,595,87.19c-.65,0-.9.41-1.12.9l-.09.16Zm69,44.08a47.51,47.51,0,0,0,20.55-9.52c.51-.4,1.16-.86.94-1.57-.33-1-1.37-.77-2.12-.77-8.29,0-14.83,3.86-20.57,9.42-.57.55-1.2,1.36-.58,2.11C661.4,132.15,662.31,132,662.87,132.11Z"/>
  <g>
    <path class="kastberg-logo-fill" d="M538.29,242.06c0,4.32,0,8.65,0,13,0,2-.66,3-2.88,3.07s-3.38-.83-3.36-3.18c.05-4.66,0-9.32,0-14,0-.62-.1-1.59-.47-1.78-1-.54-1.35.58-1.78,1.2-1.81,2.59-3.62,5.18-5.35,7.83-1.35,2.07-2.37,1.78-3.57-.16-1.57-2.54-3.28-5-5-7.46-.54-.78-.9-2.23-1.89-2-1.22.25-.63,1.69-.64,2.59-.07,4.16,0,8.32-.05,12.48,0,2,.61,4.46-2.95,4.5-3.31,0-3.28-2-3.28-4.28,0-7.82,0-15.63,0-23.45,0-1.58-.44-3.64,1.89-4,2.09-.33,4.34-.72,5.8,1.62,2.12,3.39,4.38,6.68,6.46,10.08,1.19,1.94,2.07,1.69,3.15,0,1.94-3.1,4.08-6.08,5.87-9.26,1.55-2.74,3.88-3,6.41-2.35s1.52,3,1.59,4.65c.14,3.66,0,7.32,0,11Z"/>
    <path class="kastberg-logo-fill" d="M470.75,242c0-3.82.16-7.65-.05-11.46-.17-3.1.69-4.64,4.1-4.43,3.65.22,7.32-.06,11,.08,5.63.23,9.06,2.53,10.52,6.82,1.58,4.6.39,8.34-4.46,11.94-1.9,1.41-1.25,2.26-.33,3.54,1.64,2.3,3.28,4.59,4.91,6.9,1.3,1.82.82,2.59-1.42,2.68-2.45.09-4.51-.16-5.95-2.59s-3.27-4.59-4.86-6.93-3.9-1.62-5.89-1.26-1.11,2.43-1.27,3.77a37.18,37.18,0,0,0-.07,4.48c0,2.43-1.66,2.45-3.42,2.5s-2.79-.63-2.77-2.58c0-4.48,0-9,0-13.46Zm11.41-.32a36.76,36.76,0,0,0,3.9-.38c2.73-.56,4.65-2.16,4.44-5.08-.2-2.65-2.1-4-4.74-4.16-2-.12-4-.16-5.95-.16-1,0-2.29-.07-2.54,1.06a14,14,0,0,0,0,7.36C478,242.62,480.48,241.21,482.16,241.72Z"/>
    <path class="kastberg-logo-fill" d="M422.32,242c0,9.49-6.72,16.22-16.27,16.33s-16.46-6.67-16.5-16.08c-.05-9.72,6.86-16.63,16.57-16.59S422.33,232.42,422.32,242Zm-6.38-.08c-.06-6-4.62-10.75-10.22-10.61s-9.84,4.84-9.71,11a10.28,10.28,0,0,0,9.92,10.39C411.54,252.81,416,248,415.94,242Z"/>
    <path class="kastberg-logo-fill" d="M550.07,242.13c0-4,.07-8,0-12-.07-2.62.73-4,3.65-4,5.65.11,11.31,0,17,0,1.82,0,3.25.31,3.31,2.67.07,2.61-1.43,3-3.49,3-3.66,0-7.32.15-11,0-3.06-.14-3.43,1.4-3.49,4-.08,2.92,1.41,3.24,3.69,3.17,3-.09,6,0,9,0,1.84,0,3.22.31,3.29,2.66s-1,3.28-3.26,3.25c-3.16,0-6.33.13-9.48,0-2.83-.12-3.17,1.39-3.21,3.71s.62,3.71,3.33,3.61c3.65-.14,7.31,0,11,0,2,0,3.62.19,3.65,2.86s-1.25,3.07-3.41,3c-5.65,0-11.31-.09-17,0-2.56.05-3.61-1-3.55-3.51C550.13,250.44,550.07,246.29,550.07,242.13Z"/>
    <path class="kastberg-logo-fill" d="M380,247.34c-.54,2.3,1.23,5.41-1.81,7.49a19.81,19.81,0,0,1-16.2,3c-7.31-1.67-12.31-8.82-11.83-16.44.5-7.9,5.91-14.34,13.22-15.41,4.15-.61,8.34-.59,12.09,1.76,1.36.86,4,1.25,2.37,3.8-1.12,1.79-2.52,3.78-5.12,1.62a7.19,7.19,0,0,0-2.23-1.07c-4.6-1.62-8.85-.42-11.58,3.24a11.79,11.79,0,0,0,0,13.54c2.65,3.5,7.16,4.62,11.68,3.23,2.51-.77,3.43-2.12,3.26-4.71-.22-3.1-2.45-2.06-4.05-2.18-2-.14-4.11.28-4-2.92.13-2.95,2.17-2.35,3.9-2.44,1-.05,2,0,3,0C380.84,240,379.9,238.85,380,247.34Z"/>
    <path class="kastberg-logo-fill" d="M665.06,258.19A17.28,17.28,0,0,1,654.53,255c-1.28-.82-2.62-1.79-1.19-3.55,1.12-1.36,2-3.2,4.35-1.47a12,12,0,0,0,8.83,2.72c1.87-.23,3.69-1,4-3.1.38-2.3-1.42-3.21-3.17-3.83-2.66-.93-5.45-1.5-8-2.53-4.52-1.79-6.08-4.34-5.8-8.77a8.72,8.72,0,0,1,6.84-8.2,17.35,17.35,0,0,1,13,1.73c1.54.89,2.84,1.79,1.38,3.86-1.18,1.67-2.17,2.79-4.37,1.3a9.91,9.91,0,0,0-6.59-1.89c-1.86.21-3.66.84-3.91,3.13-.22,2.07,1.19,3,2.86,3.52,1.88.63,3.8,1.18,5.69,1.77,6.55,2.05,9.21,5.38,8.39,10.47S671.9,258.19,665.06,258.19Z"/>
    <path class="kastberg-logo-fill" d="M432.53,238.39c0-2.49-.07-5,0-7.48.07-2-.78-4.58,2.75-4.68s3,2.35,3,4.46c0,3.66-.07,7.31.05,11a28.61,28.61,0,0,0,.74,5.9c.82,3.35,3.29,4.92,6.59,5,3.48.11,6.14-1.25,7.16-4.89,1.28-4.57.45-9.25.67-13.88.07-1.66,0-3.32,0-5,0-1.93,1.05-2.59,2.84-2.6s3.35.46,3.32,2.7c-.09,6.63.71,13.31-.71,19.87-1.48,6.88-6.69,10-15.31,9.39-6.27-.44-10.6-4.78-11.06-11.32-.2-2.81,0-5.65,0-8.47Z"/>
    <path class="kastberg-logo-fill" d="M591.73,245c0-2.82-.22-5.66,0-8.46.34-3.51-1-4.77-4.45-4.45-1.69.15-3.79.79-5.12-.93-1.47-1.9,0-4.8,2.65-4.85,6.64-.13,13.28,0,19.92,0,1.91,0,3.13.55,3.19,2.81.06,2.49-1.17,3.2-3.37,3.08-1,0-2,.1-3,0-2.83-.32-3.77.88-3.7,3.68.16,6.14,0,12.28.05,18.42,0,2.17-.12,3.87-3.07,3.93s-3.26-1.42-3.19-3.71C591.8,251.26,591.73,248.1,591.73,245Z"/>
    <path class="kastberg-logo-fill" d="M636.05,241.71c0-4,.06-8,0-12,0-2.5.93-3.63,3.53-3.55s2.73,1.81,2.73,3.74c0,8.13,0,16.26,0,24.38,0,2.24-.28,3.83-3.18,3.78s-3.08-1.84-3.08-4C636.05,250,636,245.86,636.05,241.71Z"/>
    <path class="kastberg-logo-fill" d="M618.58,247c-1.48,0-3,0-4.44,0-2,0-2.28-1.43-2.29-3.05s.37-3,2.39-3c2.8,0,5.6,0,8.4-.05,2-.05,3,.74,3.08,2.86,0,2.28-.83,3.39-3.18,3.26-1.32-.07-2.64,0-4,0Z"/>
  </g>
</svg>
